<?xml version="1.0" encoding="utf-8"?>
<!-- Generator: Adobe Illustrator 27.0.0, SVG Export Plug-In . SVG Version: 6.00 Build 0)  -->
<svg version="1.1" id="Layer_2_00000159451688578684749590000014883954875882998452_"
	 xmlns="http://www.w3.org/2000/svg" xmlns:xlink="http://www.w3.org/1999/xlink" x="0px" y="0px" viewBox="0 0 489.4 159"
	 style="enable-background:new 0 0 489.4 159;" xml:space="preserve">
<style type="text/css">
	.st0{fill:#FFFFFF;}
</style>
<g id="Layer_1-2">
	<g id="agria">
		<path class="st0" d="M0,126.5c0.5-2.4,0.7-4.4,1.4-6.2C16.6,81.6,31.8,42.9,47,4.1c1.1-2.8,2.4-3.8,5.5-3.7
			c8.5,0.2,8.5,0,11.6,7.9c14.6,37.3,29.3,74.7,43.9,112c0.7,1.8,1,3.7,1.6,6.1c-8.7,0-16.8,0.1-24.8-0.1c-0.9,0-2.1-1.6-2.6-2.6
			c-2-4.9-3.8-9.8-5.5-14.8c-0.8-2.2-1.8-3.2-4.3-3.1c-11.8,0.1-23.7,0.1-35.5,0c-2.4,0-3.3,1-4,3c-1.7,5-3.5,10-5.5,14.8
			c-0.4,1.1-1.6,2.7-2.5,2.7C16.8,126.6,8.8,126.5,0,126.5L0,126.5z M55.2,46.3l-1.1-0.2C50,59,45.9,71.7,41.8,84.7h25.4
			C63.1,71.6,59.1,58.9,55.2,46.3z"/>
		<path class="st0" d="M112.7,148.6c2.8-5.4,5.5-10.5,8.2-15.6c4.8,1.9,9.3,4.1,14.1,5.5c7.6,2.2,15,1.8,21.2-3.9
			c3.4-3.2,5.6-7,4.9-12.3c-0.9,0.3-1.3,0.3-1.7,0.6c-16.7,10.1-35.7,5.1-44.5-12.5c-7.5-15.2-8.7-31.3-2.4-47.2
			c6.4-16.2,19.2-23.5,36.2-24.1c10.9-0.4,21.2,2.2,31.1,6.4c2.1,0.9,2.7,2.1,2.7,4.3c-0.1,24.2,0,48.3-0.2,72.5
			c-0.2,18.5-10.4,32.1-27.1,35.7C140,161.1,126,157.5,112.7,148.6L112.7,148.6z M159.8,81.6L159.8,81.6c0-5.9,0.1-11.8-0.1-17.7
			c-0.1-1.3-1.1-3.3-2.1-3.6c-10.9-3.3-20.1-1.1-24.3,12.3c-2,6.4-1.9,12.9-0.6,19.4c3.4,16.7,15.3,16.9,24.1,12.4
			c2.1-1.1,3.1-2.6,3-5.1C159.7,93.4,159.8,87.5,159.8,81.6L159.8,81.6z"/>
		<path class="st0" d="M382.4,111.5c0,4.3,0,8.7,0,13.1c0,0.7-0.5,1.7-1.1,2.1c-4.8,2.9-16.3,1.3-20.2-3c-1.6-1.7-2.7-3.9-4.1-6
			c-0.1,0.1-0.6,0.2-0.9,0.5c-11.1,12.8-30.9,13.3-42.8,1.2c-4.7-4.8-7.7-10.6-9.6-16.9c-3.3-10.9-4-22.1-1.1-33.1
			c5.4-20.9,21.2-31.5,43.5-30.3c9.1,0.5,17.5,3,25.9,6.3c2.2,0.9,3,2.1,3,4.5c-0.1,15.9-0.1,31.7-0.1,47.6c0,1.5,0,3,0,4.5
			C375.1,108.1,376.6,110,382.4,111.5L382.4,111.5z M352,82.1C352,82.1,351.9,82.1,352,82.1c0-6.2,0-12.3-0.1-18.5
			c0-1.1-0.8-2.8-1.6-3.2c-8.6-4.3-18.9-0.7-23,8.1c-4.1,8.8-3.9,17.8-1.3,26.9c3.2,10.9,12.9,14.8,22.9,9.4
			c2.2-1.2,3.4-2.6,3.2-5.3C351.8,93.7,352,87.9,352,82.1L352,82.1z"/>
		<path class="st0" d="M223.3,52.1c4.2-8,10.1-12.5,18.4-13.1c5.9-0.5,11.2,1.1,15.9,4.6c0.9,0.7,1.8,2.4,1.5,3.3
			c-1.8,5.6-3.9,11.1-5.7,16.1c-4.7-1-9.1-2.7-13.4-2.6c-9.4,0-16,7.6-16.1,18.3c-0.2,14.3-0.1,28.7-0.1,43c0,1.4,0,2.7,0,4.7
			c-7.2,0-14.2,0.1-21.2-0.2c-0.6,0-1.6-2.3-1.6-3.5c-0.1-16.4-0.1-32.7-0.1-49.1c0-3.5,0.1-7.1-0.1-10.6c-0.3-4.8-1.8-6.4-6.4-7.9
			c-0.8-0.2-1.7-1.4-1.8-2.2c-0.2-3.5-0.2-7,0-10.6c0.1-0.9,1.2-2.2,2.1-2.4c6.5-1.3,12.9-1.7,19.3,0.6
			C219.2,42.5,221.8,46.4,223.3,52.1L223.3,52.1z"/>
		<path class="st0" d="M404.2,126.5c-0.1-1.9-0.2-3.2-0.2-4.6c0-25.7,0-51.3-0.1-77c0-3.1,0.8-4.3,4-4.2c5.3,0.2,10.6,0.3,15.9,0
			c3.3-0.1,3.9,1.2,3.9,4.2c-0.1,17.7,0,35.5-0.1,53.2c0,3.7,0.8,5.1,4.8,5c7.7-0.3,15.4,0,23-0.1c2.8-0.1,3.8,0.8,3.7,3.7
			c-0.2,5.5-0.1,11.1,0,16.6c0,1.8-0.2,3.2-2.6,3.2C439.2,126.5,422,126.5,404.2,126.5L404.2,126.5z"/>
		<path class="st0" d="M435,64V41.2h54.4v85h-23c0-1.5,0-3,0-4.4c0-17.6,0-35.2,0-52.8c0-4.9,0-4.9-5-4.9C452.8,64,444.1,64,435,64
			L435,64z"/>
		<path class="st0" d="M290.6,83.7c0,13-0.1,25.9,0.1,38.9c0,3.2-1,4.2-4.1,4c-5.4-0.2-10.8-0.1-16.2,0c-2.2,0-3.1-0.7-3.1-3
			c0.1-26.5,0.1-53.1,0-79.6c0-2.3,0.8-3.1,3.1-3c5.4,0.1,10.8,0.2,16.2,0c3.1-0.1,4.1,0.8,4.1,4C290.5,57.8,290.6,70.7,290.6,83.7z
			"/>
		<path class="st0" d="M292.6,14.3c0,8-5.7,13.9-13.3,14c-8.1,0.1-13.8-6-13.7-14.6c0.1-8.3,5.5-13.7,13.8-13.7
			C287.3,0.1,292.7,5.9,292.6,14.3z"/>
		<path class="st0" d="M434.9,95.7V71.3c7.6,0,15-0.1,22.3,0.1c0.7,0,1.9,1.3,1.9,2c0.2,6.7,0.2,13.3,0,20c0,0.8-1.4,2.2-2.1,2.2
			C449.8,95.8,442.5,95.7,434.9,95.7L434.9,95.7z"/>
	</g>
</g>
</svg>
