<?xml version="1.0" encoding="utf-8"?>
<!-- Generator: Adobe Illustrator 27.0.0, SVG Export Plug-In . SVG Version: 6.00 Build 0)  -->
<svg version="1.1" id="Layer_2_00000065762009270219044160000015459589868965702814_"
	 xmlns="http://www.w3.org/2000/svg" xmlns:xlink="http://www.w3.org/1999/xlink" x="0px" y="0px" viewBox="0 0 495.8 133.3"
	 style="enable-background:new 0 0 495.8 133.3;" xml:space="preserve">
<style type="text/css">
	.st0{fill:#FFFFFF;}
</style>
<g id="Layer_1-2">
	<g>
		<path class="st0" d="M269.9,100.4c-3.4,4.1-6.5,8.6-10.4,12.2c-14,13-31.2,18.2-49.7,20c-11.9,1.2-23.9,1-35.7-1.6
			c-25-5.5-35.6-22.2-29.1-48.1c4.4-17.3,16.2-29,31.8-36.6c24.8-12,50.8-13.4,77.2-6.7c5.3,1.3,10.7,4.2,15.1,7.7
			c13.5,10.6,11.4,28.5-3.9,35.9c-11.2,5.5-23.4,6.9-35.6,7.6c-11.6,0.7-23.3,0.8-35,0.8c-3,0-4.1,1-4.6,3.9
			c-1.9,10.8,3.2,16.6,14,15.1c4.3-0.6,8.8-1.8,12.6-3.8c10.3-5.6,21.2-8.1,32.8-7.7c6.5,0.3,13,0.1,19.6,0.1
			C269.3,99.6,269.6,100,269.9,100.4L269.9,100.4z M197,76.9c6.9,0,13.6,0.4,20.2-0.2c3.9-0.3,7.9-1.7,11.4-3.4
			c3.9-1.8,5.3-5.5,4.5-9.8c-0.8-4.3-3.8-6.2-7.9-6.9C213.6,54.8,199.9,64.5,197,76.9L197,76.9z"/>
		<path class="st0" d="M254,129.7c5.5-6.1,10.6-11.7,15.7-17.3c8.6-9.5,17.2-18.9,25.9-28.3c1.7-1.9,2-3.3,1-5.8
			c-5.3-12.5-10.4-25.1-15.7-38.3c1.5-0.2,2.7-0.4,3.8-0.4c13.8,0,27.5,0.1,41.3-0.1c2.8,0,3.8,0.9,4.5,3.5c1.9,6.7,4,13.2,6.4,20.8
			c1.4-1.7,2.5-2.8,3.4-4c9.9-14.5,24.2-20.1,41.2-20.2c8.3,0,16.6,0,25.9,0c-1.2,1.5-1.8,2.4-2.5,3.2c-12.6,13.7-25.3,27.3-38,40.9
			c-1.8,1.9-2,3.4-0.9,5.7c5.5,11.7,10.7,23.5,16,35.2c0.7,1.5,1.3,3,2.1,5c-1.6,0.1-2.8,0.3-3.9,0.3c-13.5,0-27-0.1-40.5,0.1
			c-2.8,0-4.1-0.9-5.1-3.5c-2.6-7.2-5.5-14.2-8.5-21.9c-2,2.5-3.6,4.5-5.3,6.5c-8.7,11-19.8,17.9-34,18.4
			C276,130,265.4,129.7,254,129.7L254,129.7z"/>
		<path class="st0" d="M91,47.8c-2.7,9-5.2,17.2-7.7,25.6c-6,0-11.8,0.2-17.7-0.1c-2.8-0.1-4.1,0.7-5,3.5c-2.8,9.7-6,19.4-9,29
			c-5.4,16.9-15.3,24.1-33.1,24.1c-6,0-11.9,0-18.6,0c5.9-19,11.8-37.5,17.7-56.5H8.4c2.3-8.2,4.4-16,6.9-23.7
			c0.3-1,2.9-1.9,4.3-1.7c4.1,0.5,5.9-1.2,6.8-5.1c1.1-4.8,2.9-9.6,4.4-14.3C34.8,16,43.1,8.1,56,4.9c15.4-3.8,30.9-2,47-1.7
			c-2.6,9.1-5.1,17.6-7.7,26c-0.2,0.8-1.8,1.5-2.8,1.5c-3.5,0.2-6.9-0.1-10.4,0c-5,0.2-8.4,2.6-9.9,7.4c-0.9,3-1.8,6-2.8,9.5
			L91,47.8L91,47.8z"/>
		<path class="st0" d="M160.2,3.4c-3.8,12.8-7.5,25.1-11.2,37.5c-6.6,21.8-13.2,43.5-19.7,65.3c-4.6,15.4-12.7,22.2-29,23.6
			c-7.2,0.6-14.4,0.1-22.1,0.1c0.3-1.6,0.5-2.8,0.9-3.9C91,86.4,102.9,46.8,114.7,7.2c0.9-2.9,2.1-3.9,5.1-3.9
			C133.2,3.5,146.5,3.4,160.2,3.4L160.2,3.4z"/>
		<path class="st0" d="M392.4,129.9c1.7-6.3,3.2-12.2,4.8-18c6.1-22.9,12.3-45.8,18.3-68.7c0.7-2.8,1.8-3.7,4.8-3.7
			c13.3,0.2,26.6,0.1,40.4,0.1c-0.4,2.2-0.7,3.9-1.1,5.6c-5.5,20.2-10.9,40.4-16.4,60.6c-4.3,15.7-13.5,23.3-29.8,24.1
			C406.6,130.2,399.8,129.9,392.4,129.9L392.4,129.9z"/>
		<path class="st0" d="M441.6,33.2c-3.7-0.6-7.5-0.8-11-1.8c-11.4-3.4-14.2-15.6-5.6-23.9c8.4-8.1,28.2-10.1,38-3.8
			c7,4.5,7.9,13.8,1.8,20.6c-5.5,6.1-12.7,8.1-20.6,8.5c-0.8,0-1.7,0-2.5,0C441.6,32.9,441.6,33.1,441.6,33.2z"/>
		<path class="st0" d="M495.8,55c0.1,8.6-6.6,15.3-15.2,15.3c-8.7,0-15.2-6.6-15.2-15.3c0-8.5,6.4-15,15-15
			C489.2,39.8,495.7,46.3,495.8,55z M492.8,55c-0.1-6.6-5.8-12.2-12.4-12.1c-6.5,0.1-12.2,5.8-12.1,12.4s5.9,12.2,12.4,12.1
			C487.3,67.2,493,61.4,492.8,55L492.8,55z"/>
		<path class="st0" d="M492.8,55c0.1,6.5-5.5,12.2-12.1,12.4c-6.5,0.1-12.3-5.6-12.4-12.1c-0.1-6.5,5.6-12.3,12.1-12.4
			C487,42.8,492.7,48.4,492.8,55L492.8,55z M477,57.2c5.9-1,4.6,8,10.8,6.1c-1.5-2.4-2.8-4.6-4.2-6.8c2.8-1.8,4.3-4.5,2.3-7.1
			c-3.1-4.2-7.8-1.9-12.1-2.4c0,5.2-0.1,10,0.1,14.6c0,0.7,1,1.3,1.5,2c0.5-0.6,1.5-1.2,1.6-1.9C477.1,60.2,477,58.7,477,57.2
			L477,57.2z"/>
		<path class="st0" d="M477,57.2c0,1.5,0.2,3-0.1,4.5c-0.1,0.7-1,1.3-1.6,1.9c-0.5-0.7-1.5-1.3-1.5-2c-0.1-4.7-0.1-9.4-0.1-14.6
			c4.4,0.4,9-1.8,12.1,2.4c2,2.6,0.5,5.3-2.3,7.1c1.4,2.2,2.7,4.4,4.2,6.8C481.5,65.2,482.9,56.2,477,57.2L477,57.2z M478.1,49.2
			c-0.7,0.3-1.5,1-1.6,1.8c-0.1,1.3,1.4,2.6,2.8,2.8c1.4,0.2,3-0.6,3.9-2C481.7,49.7,479.6,48.7,478.1,49.2z"/>
	</g>
</g>
</svg>
