<?xml version="1.0" encoding="UTF-8"?>
<svg id="Layer_2" data-name="Layer 2" xmlns="http://www.w3.org/2000/svg" viewBox="0 0 495.32 84">
  <defs>
    <style>
      .cls-1 {
        fill: #fff;
      }
    </style>
  </defs>
  <g id="Layer_1-2" data-name="Layer 1">
    <g>
      <path class="cls-1" d="M495.32,83.99H87.34c-.21-.77-.26-82.7-.05-83.93H495.32V83.99ZM238.43,17.78c.78,0,1.48-.04,2.17,0,.93,.07,1.88,.09,2.76,.33,1.35,.37,2.24,1.28,2.43,2.74,.09,.69,.19,1.39,.23,2.09,.05,1.03,.06,2.07,.06,3.1,0,11.24,.01,22.48,0,33.72,0,1.5-.07,3-.25,4.49-.21,1.8-1.29,2.88-3.07,3.2-.75,.13-1.52,.15-2.29,.18-.66,.03-1.32,0-2.02,0v2.98h24.63v-2.98c-.58,0-1.08,.02-1.57,0-.86-.03-1.74,0-2.59-.16-2.42-.44-3.02-1.58-3.23-3.24-.14-1.12-.23-2.26-.24-3.39-.03-4.87-.01-9.74-.01-14.61,0-.29,.04-.58,.07-.96,1.09,0,2.12,.06,3.14-.02,.83-.07,1.32,.22,1.8,.9,5.72,7.92,11.47,15.82,17.2,23.73,.34,.47,.66,.82,1.35,.81,4.74-.03,9.47-.02,14.21-.02,.25,0,.51-.05,.78-.08v-2.85c-.64-.1-1.23-.19-1.82-.27-3.35-.48-6.27-1.8-8.49-4.43-1.01-1.2-2.04-2.38-2.97-3.64-3.54-4.84-7.05-9.72-10.57-14.58-.19-.26-.36-.54-.59-.88,.36-.12,.64-.22,.92-.3,1.85-.57,3.64-1.3,5.3-2.32,7.22-4.46,7.97-13.11,4.91-18.38-2.3-3.97-5.82-6.33-10.28-7.31-3.28-.72-6.61-.87-9.94-.9-7-.05-14.01-.03-21.01-.03-.32,0-.65,0-1.02,0v3.08Zm116.46,.04c.53,0,.98,0,1.44,0,3.03,.03,5.58,1.15,7.6,3.41,.31,.35,.6,.72,.94,1.03,.51,.46,.66,1,.66,1.69-.02,12.17,0,24.35-.02,36.52,0,1.16-.08,2.33-.2,3.49-.21,2.11-1.22,3.21-3.31,3.52-1.02,.15-2.06,.12-3.09,.17-.35,.02-.71,.04-1.09,.06-.07,1.05-.11,1.99,0,2.93h20.43v-2.99c-.94,0-1.81,.07-2.66-.02-.95-.1-1.92-.25-2.83-.54-1.03-.32-1.68-1.1-1.81-2.19-.16-1.35-.36-2.72-.36-4.08-.03-10.21-.02-20.41-.02-30.62,0-.25,.03-.49,.06-.92,.34,.39,.56,.62,.77,.87,8.85,10.73,17.7,21.46,26.54,32.19,2.36,2.86,4.71,5.71,7.07,8.56,.2,.25,.47,.59,.73,.61,.78,.08,1.57,.16,2.42-.08,0-.4,0-.76,0-1.13,0-3.74,0-7.47,0-11.21,0-11.37,0-22.75,.01-34.12,0-1.23,.08-2.47,.22-3.69,.21-1.89,1.09-2.9,2.96-3.29,.93-.2,1.92-.16,2.88-.21,.52-.03,1.04,0,1.61,0,.09-1.09,.14-2.04-.02-2.96-1.31-.23-19.71-.16-20.41,.06v2.9c.65,0,1.24-.03,1.83,0,.99,.06,2.01,.07,2.97,.28,1.42,.31,2.38,1.18,2.55,2.71,.13,1.22,.32,2.45,.32,3.68,.03,9.51,.02,19.01,.01,28.52,0,.25-.04,.5-.08,.95-.38-.45-.64-.75-.89-1.05-10.26-12.47-20.51-24.93-30.75-37.41-.47-.58-.95-.79-1.69-.79-4.57,.03-9.14,.01-13.71,.02-.36,0-.71,.03-1.12,.05v3.06ZM105.19,70.63c2.06,.21,23.97,.12,24.75-.11,0-.44,0-.9,0-1.37,0-.48-.02-.97-.03-1.5-1.01,0-1.88,.05-2.74-.01-.79-.06-1.6-.15-2.35-.37-1.25-.37-2.04-1.23-2.25-2.55-.1-.66-.23-1.32-.24-1.98-.05-5.54-.07-11.07-.09-16.61,0-.19,.08-.37,.12-.59,.9,.16,1.75,.31,2.6,.45,3.31,.54,6.63,.68,9.95,.1,2.77-.49,5.32-1.49,7.54-3.25,5.54-4.42,6.58-12.06,4.6-17.34-1.73-4.63-5.17-7.6-9.76-9.26-2.72-.98-5.57-1.37-8.45-1.4-7.6-.08-15.21-.08-22.81-.11-.28,0-.57,.06-.83,.09v2.99c.89,0,1.72-.05,2.54,.01,.89,.07,1.8,.15,2.65,.4,1.19,.36,2.02,1.18,2.15,2.49,.14,1.39,.33,2.79,.33,4.18,.03,11.87,.02,23.75,0,35.62,0,1.16-.11,2.33-.19,3.49-.16,2.32-1.64,3.24-3.24,3.48-1.05,.16-2.12,.12-3.19,.18-.35,.02-.7,.04-1.13,.06,0,.83,0,1.56,0,2.29,0,.19,.04,.39,.06,.63Zm56.77-53.23c.42,.02,.75,.04,1.08,.05,.73,.01,1.47,0,2.2,.02,2.55,.1,3.75,1.1,4.11,3.6,.22,1.48,.29,2.99,.3,4.48,.03,6.64,0,13.28,.02,19.91,0,3.47,.07,6.93,.48,10.39,.83,7.08,5.78,12.87,12.67,14.65,5.22,1.35,10.49,1.41,15.77,.38,6.35-1.24,13-6.07,14.27-14.62,.5-3.38,.67-6.77,.67-10.17,.01-6.77-.01-13.54,.02-20.31,0-1.53,.15-3.06,.26-4.59,.13-1.81,1.97-3.41,3.43-3.59,.92-.11,1.86-.11,2.79-.16,.39-.02,.77-.03,1.21-.04,.01-1.07,.07-2.02-.03-2.94-2.24-.2-19.67-.11-20.45,.11,.03,.93-.07,1.88,.07,2.87,.61,0,1.11-.02,1.61,0,.96,.05,1.94,.04,2.88,.22,1.63,.32,2.69,1.3,2.87,3.02,.13,1.22,.25,2.46,.26,3.69,.02,7.74,.05,15.48-.01,23.22-.02,2.36-.23,4.73-.44,7.08-.4,4.4-2.63,7.61-6.53,9.65-4.06,2.12-8.37,2.72-12.81,1.77-4.66-.99-7.69-3.78-8.69-8.57-.54-2.62-.89-5.27-.91-7.94-.05-8.64-.03-17.28-.01-25.92,0-1.03,.17-2.06,.34-3.07,.29-1.72,1.39-2.71,3.07-2.97,1.05-.16,2.12-.12,3.19-.18,.35-.02,.7-.04,1.06-.06v-2.99h-8.24c-2.77,0-5.54-.01-8.31,0-2.72,.02-5.43-.07-8.17,.06v2.94Zm298.75,53.17c1.32,.23,22.43,.16,23.1-.06v-2.79c-.46-.05-.85-.12-1.24-.15-2.77-.2-4.77-1.58-6-4.04-.79-1.58-1.59-3.16-2.26-4.79-6.06-14.74-12.09-29.48-18.13-44.23-.46-1.12-.3-1.02-1.5-1.03-.1,0-.2,0-.3,0-1.51,.02-1.21-.17-1.8,1.19-6.55,15.04-13.09,30.08-19.66,45.1-.67,1.52-1.5,2.97-2.27,4.45-.98,1.89-2.56,2.92-4.65,3.23-.52,.08-1.03,.21-1.55,.32-.06,1.01-.09,1.93,0,2.86h18.55v-2.92c-.32-.04-.59-.05-.84-.1-1.21-.2-2.45-.32-3.63-.65-1.42-.39-1.96-1.42-1.64-2.86,.16-.71,.36-1.43,.64-2.1,1.24-2.95,2.53-5.88,3.77-8.83,.22-.53,.55-.64,1.08-.64,6.17,.01,12.34,.02,18.51,0,.55,0,.84,.17,1.05,.68,1.11,2.79,2.28,5.55,3.37,8.34,.37,.96,.64,1.97,.85,2.97,.24,1.19-.31,2.1-1.45,2.52-.56,.21-1.16,.32-1.74,.41-.72,.11-1.45,.16-2.24,.24v2.85Zm-126.06-2.92c-.96,0-1.79,0-2.62,0-1.23-.01-2.37-.33-3.43-.95-.73-.43-1.25-1.02-1.34-1.88-.13-1.33-.3-2.66-.3-3.98-.02-11.98-.02-23.95,0-35.93,0-1.3,.17-2.59,.3-3.88,.17-1.69,1.23-2.64,2.8-2.98,.9-.2,1.85-.18,2.78-.23,.59-.03,1.18,0,1.79,0v-3.01h-24.67v3.02c.93,0,1.79,0,2.65,0,1.12,0,2.18,.28,3.17,.8,.84,.44,1.45,1.08,1.55,2.07,.13,1.23,.29,2.46,.3,3.68,.02,12.14,.02,24.28,0,36.43,0,1.2-.15,2.39-.28,3.59-.19,1.87-1.33,2.77-3.05,3.08-1.04,.19-2.12,.14-3.18,.2-.39,.02-.77,.03-1.14,.05-.17,1.3-.14,2.26,.08,2.94,1.96,.19,23.84,.1,24.58-.11v-2.88Z"/>
      <path class="cls-1" d="M0,83.86V.19C.77-.03,82.64-.08,83.8,.14V83.83c-.83,.2-82.59,.24-83.8,.03ZM2.77,2.94c-.2,1.46-.14,77.31,.05,78.04,1,.19,77.12,.16,77.87-.03,.22-1.21,.16-77.26-.07-78.01H2.77Z"/>
      <path class="cls-1" d="M255.49,40.99V20.06c2.84-.58,5.68-1.04,8.53-.28,4.16,1.1,6.61,3.87,7.35,8.07,.41,2.34,.24,4.67-.86,6.83-1.28,2.53-3.31,4.23-5.94,5.23-2.82,1.08-5.77,1.3-8.76,1.18-.09,0-.18-.06-.32-.1Z"/>
      <path class="cls-1" d="M122.29,41.52V20.14c2.58-.62,5.09-.89,7.63-.13,2.53,.76,4.42,2.28,5.61,4.63,1.77,3.49,2.14,7.15,.95,10.86-1.05,3.27-3.23,5.56-6.66,6.44-1.58,.41-3.18,.21-4.77,.02-.92-.11-1.83-.29-2.77-.45Z"/>
      <path class="cls-1" d="M443.65,47.83c2.75-6.33,5.45-12.55,8.25-19.01,2.67,6.44,5.21,12.69,7.79,19.01h-16.04Z"/>
      <path class="cls-1" d="M77.8,29.85h-23.81V6.21c.75-.22,22.68-.27,23.81-.04V29.85Z"/>
      <path class="cls-1" d="M77.8,54.2v23.62c-.82,.21-22.64,.25-23.7,.06-.21-.69-.29-22.13-.09-23.63,.73-.21,22.6-.26,23.78-.04Z"/>
      <path class="cls-1" d="M29.73,29.86H6.13c-.22-.85-.25-22.72-.03-23.77,7.84,0,15.7,0,23.56,0,.21,.7,.29,22.07,.07,23.77Z"/>
      <path class="cls-1" d="M30.01,53.83V30.23c.74-.23,21.43-.34,23.66-.12,.21,.71,.3,21.69,.1,23.63-.69,.24-22.01,.34-23.76,.09Z"/>
      <path class="cls-1" d="M6.02,77.99v-23.74c.72-.22,21.84-.31,23.65-.11,.2,.71,.28,21.92,.08,23.76-1.92,.2-3.87,.06-5.82,.08-2,.03-4,0-6,0H6.02Z"/>
    </g>
  </g>
</svg>