<?xml version="1.0" encoding="UTF-8"?>
<svg id="Layer_2" data-name="Layer 2" xmlns="http://www.w3.org/2000/svg" viewBox="0 0 493.59 166.51">
  <defs>
    <style>
      .cls-1 {
        fill: #fff;
      }
    </style>
  </defs>
  <g id="Layer_1-2" data-name="Layer 1">
    <g>
      <path class="cls-1" d="M283.91,55.13c3.02,.9,5.71,1.86,8.27,3.14,11.91,5.97,18.36,17.73,17.09,30.96-.72,7.51-3.12,14.27-8.19,19.95-4.98,5.57-11.36,8.75-18.5,10.54-4.75,1.19-9.58,1.75-14.48,1.75-19.65,0-39.29,0-58.94,.03-1.11,0-1.41-.26-1.4-1.39,.03-39.31,.03-78.62,0-117.93,0-1.12,.29-1.4,1.4-1.39,17.27,.04,34.53-.02,51.8,.04,9.07,.03,17.79,1.73,25.54,6.75,7.29,4.72,12.09,11.23,13.38,19.96,1.2,8.12-1.4,15.08-6.99,20.99-1.27,1.34-2.66,2.55-4.16,3.64-1.46,1.06-3.02,1.96-4.82,2.95Zm-45.94,29.86c0,4.42,0,8.85,0,13.27,0,.63,0,1.09,.88,1.07,7.95-.18,15.91,.38,23.85-.44,2.12-.22,4.21-.64,6.23-1.36,5.52-1.96,8.12-5.59,8.48-11.79,.34-5.84-2.29-10.23-7.6-12.69-3.3-1.53-6.81-2.09-10.39-2.12-6.69-.05-13.37,.02-20.06-.05-1.2-.01-1.4,.39-1.39,1.46,.05,4.22,.02,8.44,.02,12.65Zm0-49.12c0,3.93,.02,7.86-.02,11.8,0,.85,.22,1.11,1.09,1.1,4.88-.04,9.76-.03,14.64-.01,1.65,0,3.27-.18,4.88-.51,8.25-1.74,12.76-9.97,9.48-17.46-2.2-5.01-6.5-7.11-11.64-7.58-5.85-.53-11.72-.1-17.58-.22-.9-.02-.85,.5-.85,1.1,0,3.93,0,7.86,0,11.8Z"/>
      <path class="cls-1" d="M493.56,99.46c0,5.98-.01,11.87,.02,17.77,0,.61-.24,.85-.75,1.06-6.42,2.59-13,4.42-19.98,4.74-5.62,.26-11.14-.13-16.5-1.91-10.11-3.37-15.78-10.54-17.66-20.86-.52-2.87-.68-5.76-.68-8.67,0-10.89-.02-21.79,.03-32.68,0-1.13-.3-1.45-1.42-1.42-3.07,.08-6.15,0-9.23,.04-.78,0-.98-.2-1.06-1.01-.28-2.72,.55-4.78,2.46-6.88,10.5-11.49,20.82-23.14,31.2-34.73,.45-.5,2.99-.91,3.58-.57,.46,.27,.25,.74,.25,1.11,.01,7.58,0,15.15,.01,22.73q0,1.72,1.78,1.72c8.9,0,17.8,.02,26.7-.02,1.02,0,1.29,.24,1.28,1.27-.06,5.08-.05,10.16,0,15.23,0,.93-.25,1.16-1.16,1.16-9.06-.03-18.13,0-27.19-.05-1.12,0-1.43,.27-1.43,1.41,.05,10.73,.02,21.46,.03,32.19,0,2.44,.41,4.81,1.57,6.99,2.17,4.05,5.74,5.78,10.17,5.98,5.72,.26,11-1.37,16.08-3.82,.52-.25,1.03-.51,1.55-.75,.06-.03,.15-.01,.35-.02Z"/>
      <path class="cls-1" d="M342.84,63.06c1.86-3.46,3.59-6.89,5.64-10.14,2.77-4.39,5.91-8.47,10.32-11.37,5.93-3.9,12.14-4.28,18.56-1.34,2.92,1.34,5.55,3.15,8.15,5.01,.52,.37,.66,.72,.47,1.33-2.23,7.05-4.44,14.11-6.63,21.17-.23,.74-.48,.64-1.01,.31-2.53-1.59-5.13-3.07-7.92-4.18-7.27-2.87-13.39-1.3-18.36,4.71-3.65,4.41-5.94,9.56-8.16,14.77-.77,1.8-1.11,3.61-1.1,5.58,.06,10.4,0,20.8,.06,31.2,0,1.17-.35,1.39-1.44,1.38-7.75-.04-15.5-.04-23.25,0-.88,0-1.18-.17-1.18-1.13,.03-26.45,.03-52.9,0-79.35,0-.92,.22-1.16,1.15-1.15,7.83,.04,15.67,.04,23.5,0,1,0,1.21,.3,1.2,1.24-.04,6.88-.02,13.76-.02,20.64v1.32Z"/>
      <path class="cls-1" d="M143.92,61.56c-1.89,3.15-3.98,5.91-6.96,7.87-6.55,4.31-15.47,3.14-20.69-2.72-1.18-1.32-2.29-2.68-3.14-4.23-.47-.85-.75-.75-1.37-.13-3.82,3.89-8.23,6.87-13.53,8.36-2.52,.71-5.09,.95-7.61,.01-4.4-1.63-6.13-5.18-6.6-9.51-.64-5.81,.74-11.38,2.33-16.89,1.22-4.19,2.75-8.3,3.2-12.69,.28-2.77,.25-5.55,.13-8.32-.38-8.73,5.85-15.35,11.01-17.2,2.92-1.04,5.79-1,8.56,.45,.56,.29,.9,.3,1.38-.11,4.79-4.06,10.44-5.6,16.62-5.63,4.08-.02,8.1,.21,11.96,1.69,2.44,.93,4.62,2.29,6.63,3.92,.35,.29,.6,.54,1.16,.25,4.93-2.53,9.35-1.24,13.26,2.14,4.26,3.68,6.78,8.32,6.41,14.11-.48,7.58,1.22,14.75,3.56,21.88,1.61,4.9,2.6,9.97,2.34,15.19-.15,2.95-.8,5.79-2.83,8.06-2.88,3.23-6.59,3.76-10.58,2.85-5.65-1.29-10.25-4.41-14.33-8.4-.29-.28-.55-.59-.9-.97Zm16.12-35.32c0-1.47,.09-2.95-.02-4.42-.33-4.33-2.62-7.39-6.41-9.36-1.46-.75-3.17-.41-3.98,.56-2.11,2.53-3.69,2.63-6.09,.33-2.36-2.26-4.92-4.27-8.16-5.05-4.81-1.17-9.66-1.18-14.46,.05-3.41,.87-6.02,3.05-8.48,5.44-1.81,1.76-4.06,1.57-5.43-.49-.53-.8-1.27-1.12-2.15-1.21-1.16-.12-2.2,.27-3.12,.91-3.72,2.57-5.65,6.09-5.36,10.64,.32,5.23-.1,10.38-1.47,15.43-1.33,4.88-3.15,9.63-3.93,14.66-.41,2.68-.7,5.37-.08,8.05,.53,2.3,1.82,3.18,4.14,2.72,5.84-1.15,10.26-4.48,13.79-9.13,.6-.79,.46-1.55,.2-2.42-1.64-5.39-2.62-10.89-2.63-16.53,0-1.88,1.44-3.24,3.3-3.25,1.86,0,3.28,1.36,3.33,3.22,.17,5.64,1.11,11.14,2.99,16.46,1.32,3.76,3.02,7.32,6.03,10.12,3.35,3.12,9.25,3.05,12.44-.08,1.51-1.48,2.78-3.12,3.74-4.98,3.4-6.59,4.87-13.66,5.13-21.02,.08-2.32,1.43-3.77,3.51-3.7,2.02,.06,3.38,1.73,3.26,3.97-.3,5.49-1.13,10.89-2.8,16.14-.25,.79-.13,1.42,.3,2.08,1.13,1.73,2.58,3.18,4.19,4.46,2.89,2.28,5.99,4.16,9.71,4.74,2.13,.33,3.34-.45,3.96-2.54,.49-1.67,.55-3.38,.39-5.11-.35-3.8-1.16-7.51-2.32-11.13-2.05-6.36-3.94-12.75-3.52-19.55Z"/>
      <path class="cls-1" d="M418.45,80.67c0,13.18-.01,26.37,.02,39.55,0,1.01-.24,1.29-1.27,1.29-7.79-.04-15.58-.04-23.37,0-.88,0-1.18-.16-1.18-1.13,.03-26.45,.03-52.9,0-79.34,0-.91,.21-1.17,1.15-1.16,7.83,.04,15.66,.04,23.5,0,1.04,0,1.18,.36,1.18,1.26-.03,13.18-.02,26.37-.02,39.55Z"/>
      <path class="cls-1" d="M8.39,124.98c-.05-3.08,.37-5.86,1.19-8.58,.28-.91,.2-1.71-.18-2.58-3.03-7.02-6.01-14.06-9.01-21.09-.64-1.5-.52-2.9,.67-4.07,1.18-1.16,2.53-1.27,4.07-.64,6.26,2.54,12.54,5.01,18.8,7.54,.77,.31,1.4,.36,2.18-.06,5.65-3.06,11.72-4.35,18.12-3.93,5.11,.33,10.03,1.51,14.53,4.06,.75,.42,1.39,.31,2.1,.02,6.27-2.51,12.55-4.99,18.8-7.54,1.55-.63,2.95-.71,4.21,.48,1.3,1.23,1.36,2.69,.68,4.28-3.27,7.63-6.51,15.27-9.78,22.9-.34,.79-.42,1.51-.25,2.36,.76,3.99,1.27,8,.1,12-1.02,3.49-2.91,6.49-5.32,9.16-4,4.44-7.61,9.22-11.85,13.44-3.35,3.33-7.28,5.69-12.05,6.39-6.45,.95-12.27-.51-17.36-4.65-2.46-2-4.64-4.28-6.54-6.8-2.86-3.8-6.17-7.22-9.04-10.99-2.67-3.51-4.36-7.39-4.06-11.69Zm66.47-27.17c-.49-.26-.76,0-1.05,.12-4.18,1.66-8.37,3.32-12.54,5.01-1.36,.56-2.67,.76-3.96-.12-4.48-3.06-9.55-4.26-14.87-4.38-5.28-.12-10.22,1.24-14.67,4.13-1.33,.86-2.64,.95-4.08,.36-2.65-1.09-5.31-2.14-7.98-3.2-1.8-.72-3.61-1.42-5.41-2.12-.18,.48,.04,.71,.14,.96,2.06,4.86,4.12,9.71,6.21,14.56,.46,1.07,.53,2.12,.16,3.22-.52,1.55-.88,3.14-1.19,4.75-.83,4.3-.3,8.28,2.64,11.77,3.63,4.32,7.17,8.72,10.82,13.03,1.86,2.2,4.02,4.13,6.69,5.3,5.87,2.58,11.95,1.42,16.61-3.24,4.23-4.23,7.88-8.98,11.84-13.46,2.28-2.58,4.08-5.44,4.06-9.09-.01-2.46-.28-4.89-.88-7.28-.25-1.01-.33-2.02,.09-3,1.48-3.46,2.96-6.92,4.44-10.38,.99-2.31,1.96-4.62,2.94-6.93Z"/>
      <path class="cls-1" d="M163.78,123.49c-.04,2.53,.2,5.09-.55,7.56-1.51,4.99-4.44,8.62-9.84,9.45-2.33,.36-4.75,.16-7.12,.13-.84,0-1.13,.2-1.11,1.08,.06,2.05,.13,4.1-.02,6.14-.37,5.15-3.79,9.34-9.22,10.67-5.26,1.29-10.7,1.34-15.94-.03-4.85-1.27-8.24-4.44-9.03-9.62-.35-2.32-.17-4.74-.12-7.11,.02-.95-.27-1.17-1.17-1.13-1.51,.07-3.04-.05-4.55,.03-6.52,.34-10.8-3.99-12.14-8.95-1.44-5.36-1.45-10.9-.03-16.26,1.2-4.54,4.17-7.78,8.96-8.85,2.41-.54,4.91-.32,7.36-.23,1.34,.05,1.62-.39,1.57-1.63-.08-2.21-.22-4.46,.11-6.62,.75-4.96,4.03-7.87,8.57-9.52,1.55-.56,3.16-.85,4.82-.79,3.36,.11,6.73-.29,10.07,.26,5.2,.86,9.51,4.64,10.5,9.3,.53,2.46,.3,4.98,.23,7.47-.04,1.3,.38,1.58,1.58,1.52,1.84-.09,3.69-.07,5.53,.02,6.48,.33,9.82,5.39,10.98,9.55,.69,2.49,.5,5.03,.54,7.56Zm-25.31,17.78c0-2.09,.04-4.18-.02-6.26-.02-.83,.26-1.02,1.05-1.01,3.81,.04,7.63-.07,11.44,.05,2.68,.08,4.33-1.18,5.4-3.46,1.16-2.47,1.14-11.81-.04-14.25-1.05-2.16-2.62-3.41-5.22-3.33-3.77,.12-7.54,0-11.32,.05-1,.01-1.34-.23-1.32-1.28,.06-3.85-.04-7.7,.05-11.54,.05-2.21-1-3.64-2.77-4.68-1.33-.78-2.8-1.13-4.35-1.13-2.26,0-4.51,0-6.77,0-1.5,0-2.94,.33-4.25,1.06-1.89,1.05-2.97,2.56-2.92,4.86,.08,3.81-.01,7.62,.04,11.42,.01,.99-.2,1.33-1.26,1.31-3.89-.07-7.79,.02-11.69-.05-1.83-.03-3.15,.74-4.17,2.14-.71,.97-1.22,2.07-1.35,3.26-.36,3.38-.43,6.79,0,10.16,.47,3.58,2.76,5.43,6.35,5.43,3.65,0,7.3,.03,10.95-.02,.9-.01,1.18,.19,1.16,1.14-.06,3.97,0,7.94-.03,11.91,0,1.4,.5,2.54,1.52,3.48,1.25,1.15,2.74,1.77,4.41,1.96,2.7,.32,5.41,.16,8.11,.12,1.6-.02,3.17-.42,4.54-1.33,1.57-1.03,2.54-2.37,2.45-4.36-.08-1.88-.02-3.77-.02-5.65Z"/>
      <path class="cls-1" d="M23.02,.77c6.03,.1,11.14,2.32,15.35,6.64,1.57,1.62,1.62,1.65,3.14,.06,3.31-3.45,7.14-5.94,11.88-6.98,12.5-2.74,24.62,6.36,25.46,19.11,.35,5.3-.73,10.24-3.48,14.79-1.46,2.41-3.68,4.16-5.53,6.23-5.58,6.22-11.16,12.43-16.73,18.66-3.36,3.75-6.7,7.52-10.06,11.27-1.82,2.03-3.89,2-5.64-.04-10.26-11.91-20.52-23.83-30.78-35.74C-3.32,23.21,2.86,4.86,17.89,1.34c1.68-.39,3.39-.61,5.12-.57Zm49.22,20.91c0-.25,0-.49,0-.74-.15-6.03-3.56-11.17-8.99-13.2-5.89-2.2-11.19-1.09-15.77,3.27-1.63,1.55-3.24,3.13-4.86,4.7-1.78,1.73-3.61,1.73-5.37,0-1.58-1.55-3.09-3.18-4.74-4.65-4.95-4.44-12.45-4.88-17.87-1.12-5.44,3.78-7.55,10.48-5.25,16.59,.87,2.32,2.51,4.08,4.1,5.92,8.64,10.02,17.26,20.06,25.85,30.12,.72,.84,1.07,.94,1.87,.05,8.8-9.77,17.28-19.82,26.41-29.29,3.21-3.32,4.46-7.22,4.61-11.66Z"/>
      <path class="cls-1" d="M405.69,1.02c7.79,0,14.21,6.35,14.18,14.12-.03,8.62-7.3,14.43-14.58,14.24-7.55-.2-13.9-6.53-13.88-14.21,.02-7.85,6.38-14.15,14.28-14.15Z"/>
      <path class="cls-1" d="M398.63,154.88c0-5.01,0-9.63,.01-14.24,0-.46-.27-1.21,.21-1.34,.76-.21,1.62-.13,2.43-.05,.33,.03,.21,.48,.21,.75,0,6.26,0,12.52,.02,18.78,0,.6-.12,.83-.8,.88-1.24,.09-2.1-.28-2.94-1.26-3.81-4.5-7.71-8.92-11.58-13.36-.21-.24-.34-.57-.73-.64-.32,.35-.15,.77-.15,1.15-.01,4.34-.06,8.68,.02,13.01,.02,1.19-.59,1.11-1.36,1.07-.72-.04-1.52,.3-1.51-1.04,.07-5.93,.02-11.87,.05-17.8,0-.52-.36-1.4,.28-1.51,.88-.15,1.9-.45,2.71,.51,2.49,2.94,5.04,5.82,7.56,8.72,1.77,2.03,3.53,4.06,5.56,6.38Z"/>
      <path class="cls-1" d="M348.55,146.84c3.51-1.48,5.93-1.27,7.63,.71,2.19,2.56,2.38,5.53,1.15,8.51-1.17,2.83-3.64,3.82-6.57,3.82-1.44,0-2.85-.23-4.23-.66-.58-.18-.84-.49-.84-1.15,.02-6.01,.02-12.02,0-18.03,0-.71,.23-.96,.91-.88,.32,.04,.66,.04,.98,0,.74-.09,.99,.17,.98,.95-.05,2.2-.02,4.4-.02,6.72Zm6.66,5.95c0-.2,.02-.41,0-.61-.37-3.33-3.44-4.82-6.07-2.95-.35,.25-.61,.49-.6,.98,.02,2.01,.01,4.01,0,6.02,0,.4,.06,.68,.51,.85,3.26,1.21,6.19-.81,6.16-4.28Z"/>
      <path class="cls-1" d="M207.29,149.38c0-3.03,.03-6.06-.02-9.09-.01-.86,.13-1.24,1.12-1.19,2,.09,4.02-.01,6.02,.07,3.61,.16,5.87,2.41,5.89,5.74,.02,3.29-2.16,5.5-5.75,5.77-1.06,.08-2.13,.12-3.19,.06-.9-.05-1.1,.3-1.09,1.13,.05,2.17-.02,4.34,.03,6.51,.02,.91-.15,1.3-1.19,1.26-1.83-.08-1.84-.01-1.84-1.8,0-2.82,0-5.65,0-8.47Zm5.39-7.5s0-.02,0-.03c-.53,0-1.06,.02-1.59,0-.55-.03-.82,.13-.81,.75,.03,1.59,.03,3.18,0,4.77-.01,.61,.27,.77,.81,.75,1.06-.04,2.12,0,3.18-.08,1.77-.14,2.85-1.31,2.88-3.03,.04-1.77-.94-2.9-2.77-3.11-.56-.07-1.14-.01-1.71-.01Z"/>
      <path class="cls-1" d="M312.41,159.87c-4.14,0-7.14-2.82-7.16-6.76-.02-4.1,2.96-7.01,7.18-7.02,4.19-.01,7.25,2.93,7.26,6.98,.02,3.91-3.07,6.79-7.28,6.8Zm4.44-6.96c-.01-2.49-1.95-4.36-4.51-4.35-2.5,0-4.31,1.84-4.33,4.37-.02,2.56,1.83,4.39,4.43,4.38,2.61,0,4.42-1.81,4.41-4.4Z"/>
      <path class="cls-1" d="M471.76,159.87c-4.07-.02-7.14-2.95-7.15-6.83,0-4.03,3.14-6.97,7.43-6.95,4.08,.02,7.08,3.02,7.04,7.05-.04,3.98-3.05,6.75-7.32,6.73Zm-4.32-7.03c-.06,2.56,1.75,4.42,4.35,4.47,2.52,.05,4.45-1.72,4.54-4.18,.1-2.5-1.86-4.5-4.46-4.56-2.48-.06-4.37,1.77-4.43,4.27Z"/>
      <path class="cls-1" d="M271.34,155.7c.24,2.93,.53,2.89-2.21,3.7-4.63,1.37-8.37-.05-9.48-4.76-.49-2.06-.31-4.16,.9-6.02,1.43-2.2,3.93-3.21,6.51-2.63,2.44,.54,4.16,2.43,4.46,5.08,.27,2.37,.64,2.08-1.83,2.09-2.21,.01-4.42,.02-6.64,0-.71,0-.92,.13-.73,.9,.65,2.64,3.14,3.85,6.27,2.97,.95-.27,1.81-.74,2.77-1.31Zm-5.79-4.24c.82,0,1.64-.05,2.46,.01,.87,.07,.96-.31,.77-1-.41-1.47-1.61-2.29-3.27-2.21-1.51,.07-2.82,1.18-3.08,2.55-.1,.5,.06,.66,.55,.65,.86-.02,1.72,0,2.58,0Z"/>
      <path class="cls-1" d="M244.89,155.7c.18,2.92-.08,3.27-2.76,3.89-4.4,1.01-7.72-.64-8.81-4.44-.6-2.08-.47-4.13,.53-6.08,1.36-2.63,4.41-3.84,7.34-2.96,2.41,.72,4.26,3.71,4.03,6.4-.06,.71-.45,.64-.9,.64-2.5,0-5,.04-7.5-.02-1.09-.03-1.12,.42-.85,1.24,.63,1.95,2.45,3.12,4.59,2.91,1.53-.15,2.94-.65,4.34-1.59Zm-5.83-4.23c.94,0,1.89-.02,2.83,0,.51,.01,.61-.15,.52-.65-.29-1.6-1.52-2.59-3.25-2.55-1.54,.04-3.02,1.3-3.24,2.7-.09,.57,.23,.49,.55,.49,.86,0,1.72,0,2.58,0Z"/>
      <path class="cls-1" d="M365.4,153.61c1.01-2.19,2-4.15,2.81-6.18,.44-1.1,1.06-1.51,2.19-1.35,.44,.06,.89,.01,1.54,.01-.76,1.63-1.45,3.14-2.15,4.64-2.23,4.74-4.5,9.45-6.65,14.22-.53,1.18-1.17,1.75-2.46,1.52-.38-.07-.79-.01-1.37-.01,1.37-2.92,2.63-5.71,3.98-8.44,.46-.92,.46-1.66-.03-2.59-1.43-2.71-2.74-5.48-4.09-8.24-.16-.32-.42-.62-.33-1.02,.08-.02,.16-.06,.24-.06q2.67-.12,3.81,2.26c.81,1.69,1.62,3.37,2.52,5.25Z"/>
      <path class="cls-1" d="M325.42,147.57c1.37-1.25,2.85-1.97,4.65-1.67,2.02,.34,3.57,1.83,3.68,3.89,.16,3.06,.08,6.13,.12,9.2,0,.49-.21,.65-.66,.63-.37-.02-.74-.04-1.11,0-.75,.09-.99-.21-.97-.96,.05-2.09,.02-4.17,.02-6.26,0-.37,0-.74,0-1.1-.06-1.76-.64-2.74-1.78-3.03-1.41-.35-3.07,.32-3.88,1.53-.25,.38-.22,.77-.22,1.18,0,2.5-.09,5,.03,7.49,.06,1.35-.7,1.14-1.52,1.17-.82,.03-1.33,0-1.3-1.12,.08-3.72,.03-7.45,.03-11.17,0-.61-.24-1.44,.88-1.25,.76,.13,2.08-.61,1.89,1.13,0,.06,.06,.13,.16,.34Z"/>
      <path class="cls-1" d="M484.89,147.54c1.05-.95,2.22-1.65,3.67-1.69,2.58-.08,4.56,1.71,4.69,4.49,.13,2.86,.04,5.73,.07,8.59,0,.53-.18,.68-.71,.71-2.01,.13-2.01,.16-2.01-1.86,0-1.84,.01-3.68,0-5.53,0-.61-.05-1.23-.16-1.83-.33-1.75-1.18-2.38-2.91-2.22-1.62,.16-2.82,1.34-2.82,2.8,0,2.54-.07,5.08,.03,7.61,.05,1.27-.73,.99-1.41,.99-.71,0-1.43,.23-1.4-1.02,.09-3.72,.03-7.45,.03-11.17,0-.65-.25-1.51,.94-1.33,.79,.12,2.06-.52,1.83,1.18,0,.05,.07,.12,.17,.27Z"/>
      <path class="cls-1" d="M414.13,157.99c-1.38,1.17-2.59,1.87-4.11,1.88-2.51,.02-4.42-1.62-4.54-4.18-.14-2.94-.07-5.89-.11-8.83,0-.58,.2-.76,.78-.78,1.99-.1,1.99-.12,1.99,1.89,0,2.13-.02,4.25,0,6.38,.02,1.82,.53,2.72,1.67,3.08,1.38,.43,2.97-.13,3.94-1.34,.32-.4,.29-.83,.29-1.27,0-2.49,.09-4.99-.03-7.48-.06-1.24,.49-1.26,1.43-1.27,.92-.01,1.38,.09,1.35,1.22-.08,3.64-.02,7.28-.04,10.92,0,.64,.37,1.57-.95,1.44-.91-.09-2.17,.39-1.67-1.65Z"/>
      <path class="cls-1" d="M277.13,147.7c1.58-1.32,3.03-2.11,4.83-1.79,2.22,.4,3.63,1.88,3.76,4.35,.16,2.89,.06,5.8,.09,8.71,0,.45-.13,.69-.62,.66-.41-.02-.82-.04-1.23,0-.73,.09-.89-.25-.88-.91,.04-1.96,.03-3.93,0-5.89,0-.77-.04-1.56-.17-2.32-.3-1.81-1.2-2.49-2.96-2.3-1.63,.17-2.77,1.33-2.77,2.83,0,2.45-.06,4.91,.03,7.36,.04,1.09-.35,1.31-1.32,1.24-.83-.06-1.54,.14-1.5-1.19,.1-3.68,.03-7.36,.04-11.04,0-.66-.24-1.48,.95-1.33,.88,.1,2.15-.43,1.74,1.62Z"/>
      <path class="cls-1" d="M447.05,148.43c1.65-1.62,3.3-3.24,4.95-4.87,0,0,.1,.04,.1,.09q.15,2.44,2.68,2.44c1.55,0,1.95,.53,1.58,2.06-.07,.3-.2,.42-.48,.43-.29,.01-.57,.01-.86,.01q-2.9,.01-2.9,2.97c0,1.23-.02,2.46,0,3.68,.03,1.7,.86,2.4,2.52,2.09,.75-.14,1.47-.46,2.2-.71,.61,2.03,.17,2.81-1.88,3.15-2.82,.46-5.71-.4-5.68-4.53,.01-1.8-.07-3.6,.02-5.4,.05-1.05-.3-1.4-1.31-1.26-.3,.04-.66,.11-.96-.14Z"/>
      <path class="cls-1" d="M252.35,154.27c1-2.35,1.98-4.36,2.7-6.46,.5-1.47,1.32-2,2.78-1.73,.27,.05,.55,.04,.96,.06-.54,1.25-1.03,2.41-1.53,3.56-1.37,3.15-2.74,6.29-4.11,9.44-.17,.39-.28,.75-.83,.73-.48-.01-.61-.32-.76-.66-1.83-4.11-3.65-8.21-5.49-12.31-.24-.53-.24-.78,.48-.83,2.12-.13,2.12-.16,2.98,1.79,.9,2.04,1.8,4.08,2.82,6.41Z"/>
      <path class="cls-1" d="M297.47,156.62c.31,2.69,.4,2.66-2.32,3.18-1.32,.25-2.62,.05-3.75-.77-.97-.7-1.41-1.69-1.42-2.86-.02-2.01-.1-4.02,0-6.02,.07-1.27-.29-1.82-1.6-1.6-.22,.04-.47-.04-.56-.04,1.58-1.61,3.18-3.25,4.79-4.88-.04-.04,.05,0,.05,.06,.1,2.39,.09,2.41,2.72,2.39,.89,0,1.66-.16,1.57,1.25-.07,1.03-.32,1.28-1.32,1.26-2.95-.06-2.95-.02-2.95,2.87,0,1.23-.02,2.46,0,3.69,.03,1.79,.98,2.55,2.71,2.16,.71-.16,1.38-.45,2.08-.69Z"/>
      <path class="cls-1" d="M428.45,156.61c.05,.08,.08,.12,.08,.15,.22,2.46-.14,2.84-2.63,3.08-2.68,.27-5.15-1.08-4.99-4.39,.08-1.8-.07-3.6,.01-5.4,.05-1.13-.19-1.72-1.44-1.5-.26,.05-.55-.03-.92-.05,1.73-1.67,3.38-3.27,5.04-4.88-.07-.06,.03-.02,.03,.03,.13,2.43,.13,2.46,2.8,2.41,.99-.02,1.57,.05,1.51,1.33-.05,1.01-.36,1.21-1.28,1.19-.96-.02-2.23-.46-2.83,.2-.58,.64-.15,1.88-.17,2.85-.03,1.14-.02,2.29,0,3.44,.02,1.93,.99,2.68,2.86,2.21,.66-.17,1.3-.45,1.93-.67Z"/>
      <path class="cls-1" d="M433.61,148.56c.45-.53,.8-.98,1.19-1.39,1.58-1.64,3.2-1.74,5.02-.39,.56,.42,.76,.79,.28,1.39-.25,.32-.45,.68-.63,1.05-.24,.47-.43,.51-.91,.19-2.53-1.7-4.99-.42-5.11,2.68-.09,2.16-.1,4.33,0,6.49,.06,1.21-.61,1.12-1.37,1.06-.69-.05-1.56,.36-1.53-1.01,.08-3.84,.08-7.68,0-11.52-.03-1.37,.83-.97,1.53-1.02,.77-.05,1.52-.12,1.35,1.07-.06,.41-.13,.88,.17,1.4Z"/>
      <path class="cls-1" d="M225.31,148.83c.7-.79,1.18-1.43,1.76-1.97,1.52-1.42,3.62-1.3,5.05,.2,.29,.31,.28,.53,.08,.85-.27,.41-.54,.82-.75,1.26-.27,.56-.5,.54-1,.19-2.23-1.56-4.38-.74-4.94,1.95-.47,2.25-.1,4.57-.21,6.85-.02,.47,.26,1.22-.21,1.35-.71,.21-1.54,.12-2.31,.04-.34-.03-.23-.47-.23-.74,0-3.97,0-7.93-.02-11.9,0-.63,.17-.84,.83-.85,1.92-.05,1.92-.08,1.94,1.82,0,.23,0,.45,0,.93Z"/>
      <path class="cls-1" d="M302.27,152.81c0,1.96-.04,3.93,.02,5.89,.02,.77-.24,1.04-.98,.95-.36-.04-.74-.03-1.1,0-.58,.04-.79-.18-.79-.77,.02-4.01,.02-8.01,0-12.02,0-.58,.2-.82,.79-.77,.41,.03,.82,.04,1.23,0,.65-.06,.85,.2,.84,.84-.03,1.96-.01,3.93-.01,5.89Z"/>
      <path class="cls-1" d="M442.36,152.82c0-1.92,.03-3.85-.02-5.77-.02-.74,.17-1,.95-.98,2.19,.07,1.75-.18,1.76,1.74,.03,3.6-.05,7.2,.04,10.8,.03,1.26-.7,1-1.4,1.02-.72,.01-1.45,.2-1.37-1.04,.12-1.92,.03-3.84,.03-5.77Z"/>
      <path class="cls-1" d="M458.89,152.82c0-1.92,.03-3.84-.02-5.76-.02-.73,.18-1.01,.96-.98,2.17,.07,1.77-.15,1.78,1.74,.02,3.6-.05,7.19,.04,10.79,.03,1.25-.69,1.02-1.4,1.03-.73,.01-1.46,.2-1.39-1.04,.11-1.91,.03-3.84,.03-5.76Z"/>
      <path class="cls-1" d="M461.92,142.03c0,.92-.68,1.62-1.62,1.63-.88,.01-1.71-.76-1.63-1.62,.09-.91,.63-1.51,1.57-1.6,.88-.08,1.67,.7,1.68,1.58Z"/>
      <path class="cls-1" d="M300.91,143.67c-.95,0-1.62-.66-1.62-1.6,0-.88,.78-1.69,1.64-1.61,.92,.09,1.51,.62,1.58,1.56,.07,.87-.72,1.65-1.6,1.65Z"/>
      <path class="cls-1" d="M443.8,140.45c.9,.03,1.55,.77,1.52,1.71-.04,.93-.75,1.58-1.7,1.5-.97-.08-1.46-.68-1.49-1.61-.03-.87,.81-1.63,1.67-1.6Z"/>
    </g>
  </g>
</svg>