<?xml version="1.0" encoding="UTF-8"?>
<svg id="Layer_2" data-name="Layer 2" xmlns="http://www.w3.org/2000/svg" viewBox="0 0 493.33 158.65">
  <defs>
    <style>
      .cls-1 {
        fill: #fff;
      }
    </style>
  </defs>
  <g id="Layer_1-2" data-name="Layer 1">
    <g>
      <path class="cls-1" d="M368.05,6.06c-.05-3.13,2.49-5.89,5.87-5.93,3.29-.04,5.99,2.69,5.96,6-.03,3.25-2.7,5.88-5.96,5.86-3.27-.02-5.88-2.65-5.88-5.92Zm5.92-5.06c-2.85-.09-4.99,2.3-5,5.02,0,2.41,1.68,5.15,5.06,5.13,3.12-.02,4.92-2.58,4.93-5.11,0-2.74-2.22-5.14-4.98-5.03Z"/>
      <path class="cls-1" d="M373.96,1c2.76-.1,4.99,2.3,4.98,5.03,0,2.53-1.81,5.09-4.93,5.11-3.38,.02-5.07-2.72-5.06-5.13,.01-2.72,2.16-5.1,5-5.02Zm-1.29,5.62c.78-.34,1.34-.15,1.71,.6,.1,.2,.23,.39,.35,.58,.31,.5,.6,1.02,.96,1.49,.11,.14,.39,.17,.61,.2,.09,.01,.2-.12,.35-.21-.56-.92-1.1-1.79-1.69-2.75,.29-.13,.49-.21,.67-.31,.86-.49,1.16-1.17,.97-2.18-.16-.8-.66-1.26-1.64-1.36-.81-.08-1.63-.06-2.45-.06-.25,0-.51,.1-.73,.15-.11,.84-.18,5.32-.1,6.2,.02,.17,.1,.34,.15,.48,.33,.07,.61,.09,.68-.28,.04-.22,.03-.45,.05-.68,.05-.63-.11-1.27,.13-1.87Z"/>
      <path class="cls-1" d="M372.67,6.62c-.24,.6-.08,1.25-.13,1.87-.02,.23,0,.46-.05,.68-.07,.37-.35,.35-.68,.28-.05-.15-.13-.31-.15-.48-.08-.88,0-5.36,.1-6.2,.23-.05,.48-.15,.73-.15,.82,0,1.64-.02,2.45,.06,.98,.1,1.49,.56,1.64,1.36,.2,1-.1,1.69-.97,2.18-.18,.1-.38,.18-.67,.31,.59,.95,1.13,1.83,1.69,2.75-.15,.1-.26,.23-.35,.21-.21-.03-.5-.06-.61-.2-.35-.47-.64-.99-.96-1.49-.12-.19-.25-.38-.35-.58-.37-.74-.93-.94-1.71-.6Zm-.02-.99c.82,.14,1.53,.16,2.23-.05,.53-.16,.76-.45,.78-.97,.03-.57-.21-.95-.77-1.12-.74-.22-1.48-.25-2.25-.02-.15,.72-.14,1.38,0,2.15Z"/>
      <path class="cls-1" d="M372.65,5.63c-.14-.78-.15-1.43,0-2.15,.76-.23,1.51-.2,2.25,.02,.55,.16,.79,.55,.77,1.12-.03,.51-.26,.81-.78,.97-.7,.21-1.41,.19-2.23,.05Z"/>
      <g>
        <path class="cls-1" d="M492.38,102.89c-1.44-6.49-4.18-12.32-8.69-17.26-.09-.1-.19-.2-.28-.3-.7-.81-.81-1.71-.38-2.68,.13-.29,.28-.57,.46-.84,.66-1,1.13-2.08,1.52-3.2,.99-2.87,1.46-5.84,1.6-8.85,.09-1.77,.04-3.56,.03-5.34-.02-2.2-.37-4.36-.99-6.47-1.68-5.69-4.74-10.53-9.11-14.53-.99-.9-1.35-1.91-1.14-3.17,.07-.4,.21-.79,.32-1.19,.17-.61,.39-1.22,.51-1.84,.5-2.68,.4-5.35-.14-8.02-.57-2.8-1.57-5.43-2.99-7.89-4.13-7.17-9.85-12.61-17.5-15.91-2.14-.92-4.35-1.63-6.64-2.08-.59-.12-1.12-.31-1.58-.74-.71-.66-1.57-1.09-2.48-1.41-3.16-1.09-6.35-1.13-9.54-.13-1.1,.34-2.14,.83-2.95,1.66-.47,.49-1.03,.7-1.65,.88-1.14,.33-2.29,.62-3.4,1.04-9.35,3.5-16.04,9.92-20.41,18.79-1.78,3.62-2.57,7.49-2.33,11.54,.09,1.46,.31,2.89,.91,4.25,.73,1.66,.22,2.96-.89,3.93-3.52,3.08-6.15,6.83-8.06,11.09-1.08,2.43-1.8,4.96-2.13,7.61-.28,2.27-.24,4.55-.22,6.83,.02,2.42,.33,4.82,.86,7.18,.44,1.96,1.05,3.87,2.12,5.6,1.18,1.9,1.11,2.55-.37,4.23-5.73,6.49-8.7,14.15-9.42,22.71-.32,3.83-.13,7.65,.48,11.46,.76,4.72,2.13,9.24,4.32,13.48,4.8,9.3,12.02,16.18,21.22,21.05,1.34,.71,2.74,1.22,4.2,1.62,3.76,1.02,7.6,1.5,11.46,1.84,4.27,.38,8.56,.52,13.06,.57,5.49-.1,11.18-.3,16.84-1.06,3.6-.49,7-1.47,10.19-3.31,7.22-4.18,13.13-9.66,17.39-16.86,3.87-6.55,5.94-13.69,6.59-21.24,.38-4.38,.19-8.75-.77-13.06Z"/>
        <path class="cls-1" d="M183.36,23c-8.04-7.37-16.06-14.75-24.08-22.13-.3-.28-.61-.54-.93-.82h-40.01c-8.27,7.89-16.56,15.79-24.71,23.58-.06,.23-.08,.28-.08,.32-.01,.09-.03,.18-.03,.27,0,34.31,0,68.61,0,102.92,0,.23,0,.46-.02,.68,0,.04-.01,.1-.04,.13-.02,.03-.07,.04-.17,.09-.38-.26-.44-.73-.61-1.13-5-11.55-9.99-23.1-14.98-34.65-2.44-5.65-4.88-11.3-7.34-16.94-.31-.72-.45-1.37-.02-2.07,.09-.15,.15-.33,.22-.5,6.72-15.72,13.43-31.44,20.15-47.17,3.44-8.05,6.87-16.1,10.31-24.15,.17-.41,.47-.79,.4-1.26-.05-.04-.08-.09-.11-.09-.23-.03-.45-.06-.68-.06-13.59,0-27.19,.02-40.78,.04-.04,0-.09,.02-.13,.04-.04,.02-.07,.06-.19,.15-.13,.33-.3,.75-.45,1.17-4.84,13.47-9.68,26.94-14.52,40.41-1.09,3.05-2.18,6.09-3.29,9.13-.09,.26-.07,.65-.59,.71,0-.56-.03-1.1-.03-1.64,0-15.97,0-31.93,0-47.9,0-.46,.01-.91-.01-1.37-.01-.22-.08-.43-.12-.62-.14-.05-.23-.11-.31-.11C27.29,.03,14.38,.02,1.47,.01c-.36,0-.73,.03-1.09,.04-.04,0-.09,.01-.13,.04-.04,.02-.07,.06-.18,.17C-.04,.8,.01,1.44,.01,2.07c0,51.46,0,102.92,0,154.38,0,.41-.01,.82,0,1.23,.01,.26,.08,.52,.14,.85,.59,0,1.14,.02,1.68,.02,12.32,0,24.63,0,36.95,0,.32,0,.64,.01,.96,0,.26-.02,.52-.07,.85-.12,.09-1.52,.03-2.97,.04-4.42,0-1.46,0-2.92,0-4.38v-35.31c0-1.51,0-3.01,0-4.52,0-1.45-.03-2.91,.18-4.38,2.54,5.84,4.85,11.72,7.2,17.59,2.37,5.93,4.72,11.86,7.09,17.79,2.35,5.88,4.69,11.77,7.02,17.61,1.4,.22,35.68,.32,43.17,.14,.26,0,.52-.06,.87-.1-.1-.33-.15-.59-.25-.83-.51-1.22-1.04-2.43-1.57-3.64-1.92-4.44-3.83-8.87-5.74-13.31-.13-.3-.38-.6-.18-1.1,1.75,1.6,3.37,3.2,5.02,4.76,1.65,1.57,3.3,3.15,4.95,4.72,1.68,1.61,3.36,3.21,5.05,4.82,1.65,1.57,3.28,3.16,4.94,4.68h1.03c13.09,0,26.19,0,39.28,.02,.84,0,1.44-.22,2.05-.82,7.5-7.4,15.03-14.77,22.55-22.15,.29-.28,.55-.59,.83-.9V25.45c0-.23-.03-.46,0-.68,.1-.75-.23-1.26-.78-1.77Zm-49.26,13.05v-1.65c.25-.08,.41-.19,.57-.19,2.78,0,5.56,0,8.35,0,.08,0,.17,.05,.35,.11,.04,.21,.11,.46,.12,.72,.02,.41,0,.82,0,1.23,0,28.65,0,57.3,0,85.94v1.97c-1.25,.2-7.84,.23-9.25,.06-.05-.23-.12-.49-.14-.75-.03-.32,0-.64,0-.96,0-28.83,0-57.66,0-86.49Z"/>
        <path class="cls-1" d="M278.18,.08c-.29-.03-.52-.06-.74-.06-12.41,.01-24.81,.03-37.22,.04-.04,0-.09,.02-.13,.04-.04,.02-.07,.06-.18,.17-.12,.49-.06,1.08-.06,1.66,0,17.97,0,35.95,0,53.92,0,.5,0,1-.02,1.5,0,.16,0,.38-.35,.32-1.49-4.75-2.98-9.53-4.48-14.31-1.51-4.83-3.03-9.65-4.55-14.48-1.5-4.78-2.98-9.58-4.49-14.35-1.53-4.82-2.98-9.66-4.58-14.51-11.2,0-22.33,0-33.45,0-.17,0-.34,.07-.56,.11-.16,.66-.09,1.3-.09,1.92,0,51.45,0,102.91,0,154.36,0,.41-.01,.82,0,1.23,.01,.26,.08,.52,.13,.87,.59,.01,1.13,.03,1.67,.03,11.63,0,23.26,0,34.9,0,.32,0,.64,.02,.96,0,.26-.02,.51-.1,.7-.14,.06-.14,.08-.17,.09-.22,.01-.04,.02-.09,.02-.13,0-.05,0-.09,.01-.14,0-.05,0-.09,0-.14,0-19.02,0-38.04,0-57.07,0-.09,0-.18,0-.27,0-.09,0-.18,.02-.27,0-.04,.02-.09,.05-.13,.02-.03,.07-.03,.26-.1,2.05,6.51,4.07,13.01,6.1,19.52,2.02,6.48,4.05,12.96,6.08,19.45,2.04,6.52,4.05,13.05,6.11,19.51,1.19,.17,32.51,.18,33.92,0,0-.71,.03-1.34,.03-1.97,0-51.45,0-102.91,0-154.36,0-.41,.02-.82,0-1.23-.02-.26-.09-.51-.14-.78Z"/>
        <path class="cls-1" d="M334.01,62.7c.16,.04,.33,.12,.51,.12,13.09,0,26.18,0,39.28,0,.17,0,.35-.08,.5-.12,.17-1.07,.19-37.68,.02-39.08-8.45-7.84-16.93-15.72-25.42-23.61h-39.87c-.27,0-.55,.02-.82,0-.54-.05-.98,.13-1.34,.54-.15,.17-.33,.31-.5,.47-7.63,7.21-15.25,14.41-22.87,21.62-1.39,1.31-1.19,.89-1.19,2.69,0,35.99,0,71.99,0,107.98,0,.32,.01,.64,0,.96-.01,.39,.13,.71,.43,.96,.17,.15,.34,.31,.51,.46,8.15,7.38,16.31,14.75,24.44,22.14,.58,.53,1.18,.74,1.95,.74,12.91-.02,25.82-.02,38.73,0,.84,0,1.44-.22,2.05-.81,7.7-7.39,15.43-14.76,23.15-22.13,.29-.28,.56-.58,.85-.88v-1.67c0-19.25,0-38.5,0-57.75,0-.36,.01-.73,0-1.09-.01-.26-.07-.52-.1-.78-.65-.19-1.24-.12-1.82-.12-15.15,0-30.29,0-45.44,0-.36,0-.73-.01-1.09,0-.26,.02-.52,.09-.85,.15-.01,.64-.03,1.23-.03,1.81,0,10.08,0,20.16,0,30.24,0,.36-.01,.73,.01,1.09,.02,.26,.09,.51,.15,.82,2.84,.15,5.61-.03,8.44,.1,.21,1.29,.3,12.23,.16,15.89-.01,.26-.08,.53-.13,.8-.9,.23-1.77,.09-2.63,.12-.91,.02-1.82,0-2.74,0s-1.73,.02-2.6,0c-.89-.02-1.8,.1-2.77-.12-.01-.65-.03-1.24-.03-1.82,0-28.74,0-57.48,0-86.22,0-.36-.01-.73,0-1.09,.01-.26,.06-.52,.09-.73,.17-.08,.25-.14,.33-.14,3.01-.02,6.02-.03,9.03-.04,.36,0,.73,.03,1.09,.05,.04,0,.09,.02,.13,.05,.04,.02,.06,.06,.19,.21,.01,.42,.04,.96,.04,1.5,0,8.35,0,16.7,0,25.04,0,.54-.1,1.1,.16,1.65Z"/>
      </g>
    </g>
  </g>
</svg>