<?xml version="1.0" encoding="utf-8"?>
<!-- Generator: Adobe Illustrator 27.0.0, SVG Export Plug-In . SVG Version: 6.00 Build 0)  -->
<svg version="1.1" id="Layer_2_00000124142633959814651100000001716691838832848004_"
	 xmlns="http://www.w3.org/2000/svg" xmlns:xlink="http://www.w3.org/1999/xlink" x="0px" y="0px" viewBox="0 0 518.4 461.6"
	 style="enable-background:new 0 0 518.4 461.6;" xml:space="preserve">
<style type="text/css">
	.st0{fill:#731F0D;}
	.st1{fill:#D9D9D9;}
</style>
<g>
	<path class="st0" d="M147.7,273.5c58.9,0,67.4-31.1,112.2-31c44.4,0.2,52.6,30.9,110.8,31c23.3,0,44-5.5,44-5.5
		c28.5-8.4,41-24,84.8-29c0,0,0,0,0,0c-9.9-25.5-20.6-45.9-23.6-52.6c-5.6-12.5-12.7-24.2-20.9-35c17.1-82.2,15.6-142.6-4.7-150.3
		c-19.5-7.5-65,23.8-104,83.3c-55.2-13.2-119.1-13.2-174.3,0C133,24.9,87.5-6.3,68,1.1c-20.3,7.7-21.8,68.1-4.7,150.3
		c-8.2,10.7-15.3,22.5-20.9,35c-3,6.7-13.7,27.1-23.6,52.6c43.9,5,56.5,20.6,84.9,29C103.7,268,124.4,273.5,147.7,273.5z"/>
	<path class="st1" d="M499.6,239C499.6,239,499.5,239,499.6,239c15.4,39.8,28.9,91.9,8.4,123.8C528.5,330.9,515,278.8,499.6,239z"/>
	<path class="st1" d="M499.5,239c-43.8,5-56.3,20.6-84.8,29c0,0-20.7,5.5-44,5.5c-58.2-0.1-66.4-30.8-110.8-31
		c-44.8-0.1-53.3,31-112.2,31c-23.3,0-44-5.5-44-5.5c-28.4-8.4-41-24-84.9-29C2.9,280.1-11,334.3,12.6,365.8
		c48.4,64.8,200.6,95.8,246.7,95.8c46,0,198.2-31,246.6-95.8c0.7-1,1.4-2,2.1-3C528.5,330.9,515,278.8,499.5,239z"/>
</g>
</svg>
